<svg xmlns="http://www.w3.org/2000/svg" viewBox="0 0 48 48" width="48" height="48">
  <defs>
    <linearGradient id="bg" x1="0" y1="0" x2="0" y2="1">
      <stop offset="0" stop-color="#f2f6f8"></stop>
      <stop offset="1" stop-color="#e4edf1"></stop>
    </linearGradient>
  </defs>
  <rect x="1" y="1" width="46" height="46" rx="11" fill="url(#bg)"></rect>
  <path d="M13 37 C 20 32, 20 20, 33 15" fill="none" stroke="#bfe2ef" stroke-width="6.5" stroke-linecap="round"></path>
  <path d="M13 37 C 20 32, 20 20, 33 15" fill="none" stroke="#29a9d1" stroke-width="3" stroke-linecap="round" stroke-dasharray="0.1 4.6"></path>
  <circle cx="13" cy="37" r="3.4" fill="#29a9d1"></circle>
  <circle cx="13" cy="37" r="1.3" fill="#ffffff"></circle>
  <path d="M33 8 a7.5 7.5 0 0 1 7.5 7.5 C40.5 21, 33 27, 33 27 S25.5 21, 25.5 15.5 A7.5 7.5 0 0 1 33 8 Z" fill="#29a9d1"></path>
  <circle cx="33" cy="15.3" r="3" fill="#ffffff"></circle>
</svg>